<?xml version="1.0" encoding="utf-8"?>
<!-- Generator: Adobe Illustrator 24.1.1, SVG Export Plug-In . SVG Version: 6.00 Build 0)  -->
<svg version="1.1" id="Layer_1" xmlns="http://www.w3.org/2000/svg" xmlns:xlink="http://www.w3.org/1999/xlink" x="0px" y="0px"
	 viewBox="0 0 2000 2000" style="enable-background:new 0 0 2000 2000;" xml:space="preserve">
<style type="text/css">
	.st0{fill-rule:evenodd;clip-rule:evenodd;fill:#432423;}
	.st1{fill-rule:evenodd;clip-rule:evenodd;fill:#FFFFFF;}
</style>
<path class="st0" d="M1917.61,1027.64l-0.42-3.17l-1.08-3.81c-3-10.22-8.8-19.34-16.77-26.37c-4.3-3.8-9.02-7.34-14.85-11.13
	c-4.9-3.18-10.29-6.34-16.47-9.65c-6.31-3.45-13.05-6.76-20.34-10.01c-6.04-13.04-13.09-25.37-21.06-36.8l-0.13-0.19
	c-12.03-17.08-27.09-33.51-46.02-50.22c-34.92-30.85-74.56-56.21-117.83-75.38l-0.1-0.04c-43.52-19.15-88.66-31.44-134.16-36.51
	l-0.11-0.01c-11.47-1.25-22.84-1.88-33.78-1.88c-0.95,0-1.9,0.03-2.85,0.04c3.97-5.5,7.85-11.02,11.64-16.56
	c54.15-3.78,101.97-17.18,142.25-39.89c22.54-12.65,41.26-27.31,55.67-43.58c18.79-21.23,30.56-45.34,34.99-71.67
	c3.62-21.47,2.09-42.37-4.51-62.32c18.7-11.36,23.28-29.17,24.33-35.36c2.76-16.43-2.89-33.33-15.13-45.33l-2.3-2.3l-3.08-2.28
	c-8.58-6.29-18.7-10.01-29.28-10.76c-2.52-0.18-5.15-0.28-7.82-0.28c-3.36,0-6.88,0.14-10.77,0.44c-5.85,0.44-12.06,1.2-18.97,2.32
	c-7.12,1.09-14.5,2.55-22.26,4.39c-12.74-6.7-25.84-12.22-39.13-16.47l-0.22-0.07c-19.92-6.26-41.87-10.18-67.08-11.98
	c-10.69-0.76-21.54-1.15-32.27-1.15c-35.8,0-71.86,4.28-107.17,12.73l-0.11,0.03c-46.22,11.18-89.55,28.79-128.79,52.37l-0.1,0.06
	c-17.17,10.38-32.65,21.85-46.28,34.27c-1.27-15.86-3.14-31.57-5.4-47.05c37.27-39.41,63.35-81.62,77.57-125.56
	c8-24.56,11.83-48.03,11.39-69.75c-0.58-28.33-8.28-54.04-22.88-76.4c-11.9-18.23-27.2-32.57-45.58-42.77
	c6.02-20.92-2.58-37.07-6.06-42.42c-8.64-13.28-23.12-21.69-39.23-22.98l-4.42-0.56l-5.75,0.73c-10.36,1.26-20.13,5.34-28.28,11.8
	c-4.48,3.55-8.8,7.59-13.62,12.74c-4.14,4.43-8.22,9.23-12.45,14.65c-2.77,3.47-5.48,7.04-8.28,10.92c-0.74,1.01-1.46,2.05-2.2,3.14
	c-0.8,1.12-1.46,2.1-2.01,2.92l-0.24,0.35c-0.19,0.28-0.38,0.57-0.57,0.85c-13.91,3.69-27.28,8.49-39.95,14.36l-0.19,0.09
	c-18.94,8.88-37.76,20.85-57.5,36.56c-36.45,28.98-68.33,63.58-94.75,102.85l-0.08,0.11c-26.45,39.57-46.38,81.85-59.22,125.65
	l-0.03,0.11c-3.47,11.96-6.18,23.78-8.12,35.42c-7.87-7.73-15.86-15.23-23.93-22.51c3.57-54.09-3.26-103.21-20.34-146.13
	c-9.5-24.01-21.52-44.53-35.72-60.98c-18.51-21.45-40.83-36.35-66.33-44.29c-20.82-6.49-41.77-7.8-62.47-3.95
	c-8.73-20.06-25.77-27.01-31.79-28.89c-4.85-1.51-9.88-2.27-14.95-2.27c-11.51,0-22.53,3.84-31.93,11.1l-2.64,2.01l-2.62,2.69
	c-7.43,7.67-12.5,17.22-14.69,27.63c-1.19,5.62-1.93,11.47-2.35,18.39c-0.35,5.86-0.44,12.11-0.26,19.09
	c0.12,7.18,0.56,14.66,1.33,22.56c-8.37,11.69-15.61,23.9-21.62,36.46l-0.1,0.21c-8.91,18.87-15.77,40.06-20.97,64.78
	c-9.6,45.56-12.08,92.53-7.38,139.58l0.01,0.11c4.84,47.26,16.46,92.53,34.54,134.55l0.05,0.11c5.4,12.46,11.41,24.2,17.97,35.21
	c-13.68-1.18-27.87-1.96-43.3-2.39c-32.49-43.44-69.65-76.35-110.56-97.89c-31.38-16.6-61.88-25.01-90.65-25.01
	c-19.34,0-37.98,3.78-55.37,11.23c-20.04,8.58-36.82,21.17-50.05,37.52c-7.3-3.59-14.99-5.41-23.02-5.41
	c-6.89,0-13.59,1.38-19.91,4.08c-15.38,6.58-26.57,20.56-30.01,37.43l-0.62,2.96l-0.22,2.96l-0.06,0.91
	c-0.65,10.63,1.71,21.17,6.8,30.48c2.76,5.06,6.01,10,10.2,15.52c3.54,4.67,7.54,9.48,12.23,14.69c4.76,5.38,9.96,10.78,15.7,16.29
	c1.25,14.32,3.69,28.3,7.3,41.75l0.06,0.22c5.51,20.13,14.09,40.69,26.21,62.85c22.36,40.86,51.03,78.16,85.22,110.86l0.08,0.07
	c34.42,32.77,72.71,59.63,113.79,79.83l0.11,0.05c12.74,6.22,25.48,11.44,38.15,15.64c-9.9,6.29-19.57,12.78-29.02,19.4
	c-35.65-10.61-70.22-16-102.94-16c-15.04,0-29.96,1.14-44.27,3.36c-25.54,3.92-48.23,11.07-67.44,21.24
	c-25.05,13.26-44.56,31.7-57.98,54.78c-10.95,18.83-16.89,38.93-17.73,59.93c-14.97,2.86-27.7,11.59-35.23,24.53
	c-8.37,14.39-9.03,32.18-1.83,47.71l1.32,2.91l1.75,2.73l0.43,0.66c5.83,8.89,14,15.92,23.63,20.34c5.24,2.41,10.79,4.43,17.43,6.36
	c5.64,1.64,11.72,3.11,18.58,4.49c7.05,1.48,14.46,2.71,22.37,3.71c9.57,10.75,19.89,20.52,30.83,29.16l0.18,0.14
	c16.44,12.86,35.61,24.24,58.58,34.79c42.35,19.45,87.64,32.28,134.61,38.14l0.11,0.01c19.29,2.36,38.74,3.56,57.8,3.56
	c27.42,0,54.74-2.47,81.19-7.33l0.12-0.02c15.06-2.81,29.42-6.57,42.99-11.23c-3.25,10.63-6.22,21.26-8.98,31.84
	c-49.66,21.88-90.1,50.68-120.28,85.67c-16.91,19.53-29.55,39.67-37.58,59.86c-10.47,26.34-13.36,53.02-8.59,79.29
	c3.88,21.42,12.41,40.56,25.39,57.09c-13.73,17.02-12,35.32-10.88,41.51c2.98,16.39,14.03,30.36,29.62,37.5l2.84,1.33l3.8,1.16
	c5.18,1.52,10.54,2.29,15.92,2.29c5.16,0,10.29-0.71,15.26-2.11c5.52-1.55,11.05-3.59,17.41-6.44c5.36-2.4,10.94-5.22,17.05-8.6
	c6.33-3.44,12.77-7.3,19.45-11.65c11.41,1.6,22.78,2.4,33.98,2.4c2.8,0,5.64-0.05,8.42-0.15l0.22-0.01
	c20.86-0.85,42.84-4.59,67.18-11.43c44.88-12.61,87.7-32.16,127.26-58.09l0.09-0.06c39.7-26.16,74.48-57.41,103.4-92.87l0.07-0.09
	c13.92-17.17,25.46-34.88,34.48-52.9c1.41,3.33,2.85,6.67,4.35,10.05c6.5,14.59,13.51,28.79,20.78,42.63
	c-22.03,49.53-32.59,98-31.39,144.17c0.63,25.82,4.82,49.22,12.46,69.56c9.97,26.52,25.78,48.21,46.98,64.45
	c17.3,13.26,36.5,21.7,57.25,25.22c1.28,21.84,14.89,34.24,19.9,38.07c8.89,6.79,19.55,10.39,30.84,10.38
	c5.45,0,10.91-0.85,16.22-2.54l3.18-0.98l3.36-1.61c9.6-4.63,17.65-11.83,23.28-20.83c3.07-4.88,5.79-10.12,8.57-16.47
	c2.35-5.37,4.59-11.21,6.84-17.83c2.37-6.78,4.54-13.95,6.54-21.64c11.9-8.09,22.91-17.06,32.89-26.78l0.16-0.16
	c14.89-14.65,28.65-32.18,42.06-53.57c24.75-39.46,43.3-82.67,55.15-128.46l0.03-0.11c11.78-46.02,16.51-92.51,14.05-138.19
	l-0.01-0.12c-1.39-24.64-5.45-47.79-12.08-69.08c7.77,3.68,15.83,7.25,24.2,10.72c14.78,6.13,29.66,11.64,44.49,16.7
	c18.12,51.1,43.83,93.53,76.51,126.22c37.78,37.94,78.49,57.17,121,57.17c4.78,0,9.62-0.25,14.37-0.75
	c21.7-2.26,41.47-9.33,58.97-21.04c13.43,12.62,28.4,14.28,35.33,14.28c1.74,0,3.51-0.09,5.27-0.28
	c16.54-1.73,31.28-11.65,39.59-26.6l1.59-2.8l1.43-3.68c3.77-9.96,4.65-20.71,2.55-31.11c-1.13-5.64-2.76-11.33-5.13-17.85
	c-1.99-5.5-4.38-11.28-7.31-17.65c-2.95-6.54-6.31-13.24-10.16-20.21c3.06-14.04,4.88-28.11,5.43-42.02l0.01-0.23
	c0.72-20.87-1.36-43.04-6.37-67.79c-9.21-45.64-25.51-89.75-48.45-131.12l-0.05-0.1c-23.14-41.5-51.73-78.49-84.97-109.95
	l-0.09-0.08c-8.6-8.1-17.42-15.53-26.4-22.27c10.17-2.9,20.2-6.01,30.09-9.27c45.32,29.84,91.46,48.2,137.27,54.59
	c11.86,1.68,23.42,2.53,34.36,2.53c43.67,0,79.9-13.15,107.68-39.07c15.93-14.86,27.43-32.38,34.32-52.24
	c1.97,0.21,3.93,0.32,5.89,0.32c13.1,0,25.51-4.85,34.98-13.68C1914.24,1061.4,1920.01,1044.58,1917.61,1027.64z M906.03,1125.04
	c-15.66-6.21-32.87-9.43-51.16-9.59c2.89-21.84-1.25-44.12-12.48-65.26c-10.27-19.35-25.64-36.32-45.88-50.72
	c24.74-16.84,40.63-42.3,45.43-73.54c2.28-14.84,1.96-30.21-0.91-46.02c0.48,0.01,0.97,0.03,1.45,0.03
	c25.5,0,49.87-9.36,70.45-27.07c12.11-10.42,22.39-23.21,30.78-38.24c18.6,14.43,41.37,22.11,66.59,22.11
	c0.82,0,1.66-0.01,2.53-0.02c16.52-0.34,33.14-3.87,49.74-10.54c5.16,20.93,16.77,39.84,34.35,55.36
	c14.95,13.19,33.15,23.06,54.4,29.53c-10.8,21.15-14.02,45.25-9.05,70.46c3.77,19.15,11.97,37.66,24.47,55.35
	c-27.02,9.23-48.49,28.38-61.8,55.65c-7.81,16-12.36,33.78-13.65,53.2c-13.23-5.75-27.23-8.73-41.43-8.73
	c-13.2,0-26.6,2.52-39.86,7.48c-17.05,6.39-32.91,16.47-47.48,30.13C950.71,1152.21,931.39,1135.09,906.03,1125.04z"/>
<path class="st1" d="M632.61,269.15l-0.04,0l-0.08,0.01c-4.55,0.33-8.99,1.4-13.19,3.16l-5.51-29.65
	c9.85-8.89,21.2-15.46,34.02-19.28c16.63-4.95,33.26-4.66,49.84,0.5c37.41,11.64,59.8,44.01,73.6,78.87
	c17.59,44.19,20.83,92.13,16.27,139.08l-0.22,2.3l-18.22-14.34c1.08-33.84-9.88-64.51-28.72-92.4
	c-20.49-30.45-47.52-53.63-82.89-64.63C649.66,270.34,640.82,268.43,632.61,269.15"/>
<path class="st1" d="M779.15,542.5c-1.96,19.15-1.67,38.51,0.45,57.64l0.02,0.22l0,0.03c0.21,2.31,0.42,4.63,0.54,6.96
	c0.07,1.44,0.17,3.1-0.13,4.52l-0.05,0.22l-0.07,0.23l-0.01,0.02c-0.64,1.85-1.48,3.87-2.96,5.2c-1.39,1.34-3.2,2.11-5.12,2.07
	l-0.57,0l-0.57-0.17c-3.92-1.23-6.27-4.88-7.65-8.53c-1.41-3.35-2.38-7.15-1.63-10.77c0.04-0.34-0.01-0.86-0.02-1.22
	c-0.06-1.28-0.18-2.57-0.33-3.84c-2.75-22.94-2.83-46.12-0.61-69.12c-26.3-23.46-51.22-48.62-73.64-75.82
	c-12.26-14.87-23.76-30.37-34.29-46.51c-23.2-35.7-41.79-74.91-50.95-116.62c-7.11,9.01-12.9,19-17.6,29.47
	c-7,15.61-11.84,32.22-15.36,48.94c-7.13,33.83-8.88,68.65-6.78,103.12c2.14,35.1,8.37,69.88,19.59,103.25
	c9.03,27.26,21.17,54.77,38.63,77.74c12.58,16.55,28.68,31.56,48.93,37.86c10.57,3.29,21.84,4.12,31.66-1.77
	c9.9-6.04,14.76-16.56,17.08-27.55c2.77-13.16,4.81-26.4,4.77-39.89c-0.04-16.06-3.02-31.68-10.1-46.19
	c-6.32-13.03-13.42-25.66-21.89-37.43c-11-15.28-24.04-28.56-38.28-40.85c-9.59-8.35-23.91-18.01-37.24-16
	c-8.75,1.32-15,7.54-18.06,15.63c-7.14,18.93,4.18,33,20.74,41.21c2.5,1.24,5.35,1.95,8.16,1.71c1.75-0.14,3.82-0.71,5.13-1.96
	l0.39-0.36l0.38-0.2c4.69-4.64,10.92-9.72,17.53-10.9c6.45-1.16,12.39,1.42,17.4,5.3c6.22,4.83,10.64,11.15,11.89,19.02
	c1.37,7.87-0.82,15.3-5.18,21.84c-6.45,9.67-15.65,15.28-27.21,16.58l-0.03,0l-0.04,0c-5,0.5-9.99,0.13-14.86-1.14
	c-7.26-1.9-14.39-5.5-20.58-9.73c-7.61-5.21-14.35-11.77-19.6-19.35c-2.06-2.97-3.95-6.06-5.66-9.25
	c-13.07-24.36-16.59-56.9,3.46-78.63c4.98-5.39,11.03-9.36,18.01-11.65c13.62-4.46,28.63-1.89,41.74,3.08
	c15.21,5.77,29.53,15.23,41.76,25.86c14.16,12.3,27.3,27.68,35.88,44.41c22.77,36.01,29.35,74.87,20.61,116.39
	c-3.21,15.26-8.88,30.66-18.98,42.77c-3.1,3.7-6.58,7.05-10.43,9.96c-15.56,11.74-33.1,13.4-51.48,7.68
	c-20.03-6.24-36.97-19.37-51-34.66c-17.2-18.74-30.37-40.85-40.46-64.12c-16.64-38.66-26.83-79.52-31.11-121.34
	c-4.21-42.12-2.09-84.41,6.64-125.83c3.95-18.75,9.44-37.49,17.63-54.84c7.42-15.5,16.91-29.87,27.97-43.01
	c-1.81-12.03-3.09-24.19-3.29-36.36c-0.13-5.15-0.12-10.31,0.19-15.47c0.24-3.96,0.64-7.94,1.47-11.83c0.44-2.1,1.47-4.02,2.97-5.57
	l0.18-0.19l0.2-0.15c1.74-1.37,3.88-2.22,6.1-1.53c3.77,1.18,4.75,5.66,5.17,9.08c0.27,2.17,0.38,4.35,0.41,6.53
	c0.07,2.84,0.01,5.68-0.09,8.53v0.03l0,0.07c-1.51,33.74,5.06,68.54,24.29,96.63c6.96,10.17,15.03,19.65,23.54,28.54
	c6.7,7.02,13.73,13.73,20.93,20.24c8.66,7.83,17.57,15.39,26.63,22.77c13.3,10.85,26.7,21.58,40.03,32.4
	c31.44,25.51,62.83,51.65,91.08,80.69c26.84,27.6,51.12,58.25,67.79,93.12c24.32,50.86,28.77,103.21,17.19,158.15
	c-5.51,26.18-16.05,53.03-36.82,70.9c-18.08,15.56-38.86,20.01-61.74,12.88c-17.37-5.41-31.12-15.78-40.71-31.31l-0.02-0.03
	l-0.04-0.08c-9.13-15.12-12.37-31.41-8.72-48.73c2.22-10.55,7.16-20.59,16.6-26.42c9.15-5.86,19.45-5.95,29.61-2.79
	c8.79,2.74,16.25,7.77,20.64,16.06c4.85,9.13,5.55,21.64,5.29,31.84l0.17,0.73v0.5c-0.01,7.78,0.62,24.77,9.83,27.64
	c9.67,3,19.37-4.4,25.83-10.76c11.09-11,17.46-24.92,20.65-40.08c7.18-34.06-2.52-66.53-20.06-95.85
	C869.26,632.86,854.51,615,839,598.46C820.33,578.51,800.07,560.06,779.15,542.5z"/>
<path class="st1" d="M249.03,664.21l-0.03,0.03l-0.06,0.06c-3.24,3.2-5.92,6.9-7.97,10.96l-23.48-18.96
	c1.7-13.15,6.05-25.51,13.31-36.73c9.42-14.56,22.24-25.12,38.21-31.96c36.01-15.42,74.09-5.36,107.28,12.19
	c42.13,22.17,75.79,56.5,102.88,95.15l1.33,1.9l-23.18,0.92c-21.2-26.42-49.49-42.63-81.96-51.6c-35.4-9.85-71.02-9.92-105.07,4.66
	C262.77,654.06,254.8,658.35,249.03,664.21z"/>
<path class="st1" d="M538.31,776.89c10.98,15.83,23.79,30.35,37.85,43.52l0.17,0.15l0.01,0.03c1.67,1.62,3.33,3.25,4.94,4.94
	c0.99,1.05,2.15,2.25,2.85,3.52l0.11,0.2l0.1,0.22l0.01,0.02c0.72,1.82,1.39,3.9,1.14,5.88c-0.19,1.91-1.06,3.67-2.54,4.9
	l-0.44,0.37l-0.55,0.24c-3.78,1.61-7.94,0.36-11.37-1.52c-3.25-1.63-6.46-3.89-8.25-7.13c-0.19-0.28-0.57-0.65-0.81-0.91
	c-0.88-0.94-1.81-1.83-2.75-2.71c-17.02-15.65-32.17-33.22-45.45-52.13c-35.26-0.76-70.57-3.72-105.31-9.84
	c-18.99-3.35-37.83-7.66-56.33-13.11c-40.86-12.08-80.52-29.82-114.63-55.58c0.46,11.46,2.57,22.81,5.8,33.82
	c4.83,16.41,11.97,32.17,20.18,47.16c16.6,30.34,37.93,57.95,61.96,82.78c24.47,25.29,51.84,47.69,82.09,65.77
	c24.6,14.86,51.74,27.89,79.96,34.02c20.33,4.42,42.34,5.38,61.83-2.98c10.18-4.36,19.29-11.04,22.92-21.89
	c3.6-11.02,0.44-22.17-4.95-32.02c-6.46-11.8-13.53-23.19-22.34-33.41c-10.48-12.18-22.91-22.12-37.74-28.56
	c-13.28-5.8-26.9-10.8-41-14.24c-18.3-4.47-36.86-6.1-55.68-6.21c-12.73-0.12-29.9,1.83-38.72,12c-5.79,6.68-6.49,15.47-3.55,23.6
	c6.89,19.02,24.65,22.37,42.59,17.86c2.71-0.68,5.33-1.99,7.32-3.99c1.24-1.24,2.44-3.02,2.63-4.82l0.06-0.52l0.16-0.4
	c0.55-6.57,1.97-14.47,6.23-19.66c4.15-5.07,10.34-6.96,16.68-7.27c7.87-0.37,15.34,1.57,21.41,6.74
	c6.16,5.09,9.34,12.16,10.28,19.96c1.4,11.54-1.95,21.77-9.89,30.26l-0.02,0.02L465.2,896c-3.47,3.63-7.51,6.58-12.04,8.78
	c-6.76,3.27-14.52,5.16-21.98,5.96c-9.17,0.98-18.57,0.37-27.49-1.99c-3.5-0.92-6.94-2.05-10.31-3.36
	c-25.79-10.03-49.64-32.48-48.55-62.01c0.27-7.33,2.29-14.27,6.11-20.55c7.44-12.23,20.52-20.01,33.73-24.75
	c15.31-5.48,32.35-7.58,48.56-7.44c18.77,0.16,38.76,3.32,56.17,10.47c40.74,12.59,71.04,37.86,91.42,75.09
	c7.48,13.68,13.21,29.06,13.41,44.82c0.05,4.82-0.41,9.63-1.45,14.34c-4.19,19.02-16.43,31.66-34.12,39.24
	c-19.29,8.26-40.71,9.27-61.32,6.75c-25.26-3.08-49.68-11.34-72.48-22.48c-37.8-18.59-72.15-43.03-102.62-72.04
	c-30.61-29.28-56.52-62.8-76.85-99.95c-9.2-16.81-17.22-34.62-22.29-53.13c-4.45-16.6-6.59-33.67-6.74-50.84
	c-9.2-7.97-18.1-16.38-26.16-25.5c-3.45-3.83-6.8-7.76-9.92-11.88c-2.4-3.17-4.69-6.45-6.59-9.94c-1.04-1.88-1.5-4.01-1.37-6.16
	l0.02-0.26l0.05-0.24c0.43-2.17,1.5-4.2,3.64-5.12c3.63-1.56,7.29,1.22,9.84,3.54c1.62,1.47,3.12,3.06,4.56,4.7
	c1.9,2.12,3.71,4.31,5.48,6.54l0.02,0.02l0.04,0.05c20.82,26.62,48.46,48.81,81.35,57.69c11.91,3.22,24.21,5.18,36.47,6.42
	c9.66,0.99,19.37,1.52,29.08,1.8c11.68,0.34,23.38,0.3,35.06,0.03c17.17-0.39,34.34-0.92,51.51-1.35
	c40.5-1.01,81.37-1.51,121.74,2.23c38.36,3.56,76.77,11.1,112.13,26.79c51.58,22.88,89.04,59.78,115.99,109.05
	c12.85,23.47,22.31,50.73,18.16,77.78c-3.62,23.56-16.52,40.42-38.54,49.85c-16.73,7.16-33.92,8.2-51.32,2.62l-0.03-0.01l-0.08-0.03
	c-16.78-5.57-29.84-15.85-38.34-31.38c-5.18-9.46-7.96-20.3-4.58-30.85c3.14-10.4,10.91-17.14,20.69-21.34
	c8.46-3.62,17.41-4.64,26.14-1.19c9.63,3.79,18.3,12.85,24.74,20.77l0.6,0.44l0.32,0.38c5.06,5.92,16.6,18.43,25.46,14.64
	c9.3-3.99,11.86-15.92,12.63-24.94c1.27-15.56-2.95-30.27-10.39-43.87c-16.71-30.54-45.22-48.93-77.63-59.84
	c-21.54-7.25-44.38-11.25-66.93-13.76C593.04,777.55,565.64,776.66,538.31,776.89z"/>
<path class="st1" d="M210.27,1193.7l-0.01,0.04l-0.01,0.08c-0.69,4.5-0.63,9.06,0.15,13.54l-30.18-1.22
	c-6.49-11.56-10.39-24.07-11.28-37.4c-1.15-17.3,2.83-33.42,11.55-48.41c19.67-33.84,56.24-48.46,93.35-54.16
	c47.06-7.32,94.59,0.16,139.43,15.02l2.2,0.73l-18.04,14.56c-32.8-8.56-65.19-4.7-96.6,7.46c-34.28,13.2-62.91,34.37-81.51,66.36
	C215.23,1177.36,211.4,1185.55,210.27,1193.7z"/>
<path class="st1" d="M509.72,1111.67c18.27,6.16,37.23,10.17,56.38,12.35l0.23,0.03l0.03,0.01c2.31,0.31,4.62,0.62,6.91,1.02
	c1.42,0.25,3.07,0.52,4.39,1.13l0.21,0.1l0.21,0.12l0.02,0.01c1.66,1.03,3.45,2.3,4.42,4.04c0.99,1.65,1.34,3.58,0.88,5.45
	l-0.13,0.55l-0.3,0.52c-2.07,3.54-6.16,5.03-10.03,5.55c-3.58,0.63-7.51,0.73-10.88-0.8c-0.33-0.11-0.84-0.18-1.19-0.25
	c-1.27-0.23-2.55-0.39-3.82-0.53c-23.02-2.41-45.67-7.48-67.63-14.74c-28.74,20.41-58.84,39.08-90.37,54.87
	c-17.24,8.63-34.93,16.4-53.03,23.07c-40.01,14.66-82.43,24.07-125.19,23.73c7.22,8.92,15.69,16.77,24.87,23.67
	c13.69,10.28,28.83,18.68,44.38,25.81c31.46,14.45,65.07,23.88,99.19,29.48c34.75,5.7,70.1,7.36,105.18,3.84
	c28.62-2.74,58.18-8.46,84.48-20.37c18.95-8.58,37.18-20.92,47.82-39.24c5.56-9.56,8.87-20.35,5.3-31.22
	c-3.7-10.98-12.9-18.05-23.12-22.74c-12.24-5.61-24.72-10.54-37.89-13.49c-15.69-3.52-31.61-4.09-47.35-0.42
	c-14.12,3.26-28.04,7.37-41.41,13.01c-17.36,7.32-33.22,17.07-48.38,28.21c-10.29,7.49-22.9,19.28-23.89,32.71
	c-0.65,8.82,4.04,16.28,11.26,21.05c16.89,11.15,33.15,3.25,44.84-11.06c1.77-2.16,3.09-4.77,3.49-7.56
	c0.26-1.74,0.16-3.88-0.77-5.43l-0.26-0.45l-0.11-0.42c-3.48-5.6-7.07-12.78-6.75-19.48c0.29-6.54,4.13-11.75,9.04-15.77
	c6.1-4.99,13.25-7.88,21.21-7.35c7.99,0.41,14.76,4.19,20.18,9.89c8.02,8.42,11.45,18.62,10.16,30.17l0,0.03l-0.01,0.04
	c-0.62,4.98-2.09,9.76-4.41,14.22c-3.47,6.65-8.57,12.79-14.07,17.88c-6.77,6.25-14.68,11.36-23.25,14.79
	c-3.36,1.35-6.8,2.5-10.28,3.45c-26.69,7.32-59.24,3.53-76.02-20.81c-4.16-6.05-6.69-12.81-7.38-20.13
	c-1.34-14.25,4.5-28.29,12.26-39.96c9.01-13.52,21.42-25.37,34.51-34.92c15.15-11.06,33.08-20.43,51.32-25.08
	c40.21-14.18,79.63-11.97,118.23,5.75c14.18,6.51,27.97,15.45,37.55,27.97c2.93,3.83,5.43,7.97,7.41,12.36
	c8.01,17.76,5.75,35.2-3.92,51.82c-10.54,18.12-27.12,31.7-45.16,41.97c-22.11,12.58-46.64,20.51-71.59,25.16
	c-41.44,7.62-83.61,8.48-125.39,3.37c-42.06-5.25-82.89-16.7-121.4-34.38c-17.43-8-34.51-17.51-49.64-29.34
	c-13.5-10.66-25.42-23.09-35.8-36.78c-12.15-0.91-24.31-2.36-36.24-4.87c-5.06-1.01-10.1-2.18-15.06-3.62
	c-3.82-1.11-7.62-2.39-11.23-4.05c-1.96-0.89-3.6-2.32-4.79-4.13l-0.14-0.22l-0.1-0.23c-0.96-2-1.31-4.27-0.14-6.28
	c1.98-3.42,6.58-3.37,10.01-3.02c2.18,0.21,4.33,0.6,6.47,1.05c2.79,0.57,5.55,1.25,8.31,1.98l0.03,0.01l0.07,0.02
	c32.62,8.95,68.06,10.28,99.75-2.2c11.47-4.52,22.52-10.27,33.1-16.59c8.34-4.96,16.45-10.32,24.4-15.89
	c9.57-6.69,18.93-13.7,28.15-20.87c13.54-10.55,27-21.21,40.52-31.78c31.89-24.95,64.37-49.71,99-70.78
	c32.91-20.01,68.23-36.85,105.98-45.34c55.06-12.39,107.17-5.11,158.25,18.35c24.34,11.18,48.23,27.4,61.06,51.58
	c11.18,21.06,10.92,42.28-1.12,62.97c-9.14,15.71-22.31,26.8-39.61,32.69l-0.03,0.01l-0.08,0.03c-16.8,5.54-33.42,5.07-49.52-2.32
	c-9.82-4.5-18.52-11.54-22.12-22.02c-3.69-10.21-1.49-20.26,3.84-29.45c4.62-7.95,11.19-14.1,20.26-16.54
	c9.99-2.7,22.36-0.6,32.26,1.92l0.75,0l0.49,0.11c7.6,1.74,24.33,4.89,29.18-3.43c5.08-8.75,0-19.84-4.77-27.54
	c-8.28-13.24-20.46-22.53-34.56-29c-31.66-14.54-65.53-12.31-98.05-1.74c-21.62,7.02-42.33,17.43-61.93,28.85
	C554.03,1079.57,531.51,1095.2,509.72,1111.67z"/>
<path class="st1" d="M517.87,1643.53l0.02,0.03l0.05,0.07c2.4,3.87,5.4,7.31,8.91,10.21l-23.77,18.61
	c-12.45-4.6-23.54-11.6-32.87-21.18c-12.1-12.43-19.54-27.27-22.63-44.34c-6.99-38.5,11.36-73.3,35.92-101.67
	c31.08-36.03,72.12-61.11,115.91-78.82l2.15-0.87l-4.29,22.76c-30.53,14.71-52.69,38.62-68.71,68.21
	c-17.54,32.24-25.59,66.89-18.98,103.29C511.04,1627.88,513.44,1636.6,517.87,1643.53z"/>
<path class="st1" d="M692.63,1387.24c17.91-7.14,34.95-16.35,50.95-27.09l0.19-0.13l0.03-0.01c1.95-1.26,3.92-2.51,5.93-3.7
	c1.25-0.73,2.68-1.59,4.07-1.99l0.22-0.06l0.24-0.04l0.02,0c1.94-0.29,4.12-0.48,5.99,0.21c1.82,0.61,3.35,1.86,4.21,3.57l0.26,0.51
	l0.11,0.59c0.73,4.04-1.42,7.81-4.03,10.72c-2.32,2.8-5.25,5.42-8.8,6.43c-0.32,0.13-0.76,0.41-1.07,0.58
	c-1.11,0.65-2.19,1.35-3.26,2.07c-19.09,13.06-39.63,23.87-61.07,32.56c-8.63,34.14-19.43,67.84-33.19,100.28
	c-7.52,17.73-15.95,35.1-25.4,51.89c-20.95,37.06-47.14,71.68-79.92,99.11c11.29,2.12,22.84,2.61,34.31,1.93
	c17.1-1.03,34.08-4.44,50.55-9.07c33.33-9.36,65.05-23.93,94.67-41.76c30.16-18.15,58.15-39.77,82.58-65.16
	c20.01-20.61,38.81-44.1,51.11-70.19c8.86-18.79,14.73-40,10.94-60.84c-1.97-10.88-6.46-21.24-16.24-27.2
	c-9.95-5.97-21.54-5.39-32.37-2.35c-12.96,3.65-25.66,7.97-37.61,14.25c-14.23,7.47-26.72,17.35-36.32,30.33
	c-8.63,11.63-16.57,23.76-23.08,36.71c-8.46,16.81-14.21,34.51-18.53,52.79c-2.97,12.36-4.91,29.5,3.05,40.37
	c5.23,7.14,13.64,9.78,22.24,8.74c20.1-2.45,27.35-18.98,26.96-37.44c-0.06-2.79-0.75-5.64-2.26-8.01c-0.93-1.49-2.4-3.05-4.11-3.64
	l-0.5-0.17l-0.36-0.25c-6.29-2.01-13.68-5.16-17.79-10.46c-4.02-5.17-4.48-11.62-3.36-17.86c1.4-7.74,4.97-14.58,11.38-19.33
	c6.35-4.86,13.96-6.36,21.78-5.53c11.57,1.22,20.81,6.77,27.32,16.4l0.02,0.03l0.02,0.03c2.76,4.19,4.75,8.78,5.87,13.68
	c1.67,7.31,1.78,15.28,0.89,22.72c-1.1,9.15-3.8,18.15-8.1,26.31c-1.69,3.2-3.55,6.3-5.59,9.29c-15.57,22.85-42.81,41.03-71.4,33.36
	c-7.09-1.91-13.41-5.42-18.69-10.55c-10.27-9.98-14.94-24.45-16.6-38.36c-1.92-16.13-0.16-33.18,3.61-48.93
	c4.36-18.23,11.92-36.97,22.8-52.32c21.42-36.82,52.86-60.65,93.76-72.15c15.03-4.22,31.32-6.35,46.75-3.01
	c4.72,1.02,9.31,2.55,13.67,4.62c17.63,8.34,27.23,23.08,30.66,42c3.75,20.62-0.07,41.69-7.14,61.19
	c-8.66,23.9-22.19,45.81-38.17,65.5c-26.61,32.63-58.16,60.58-93.29,83.73c-35.44,23.23-73.95,40.94-114.76,52.41
	c-18.47,5.19-37.64,9.01-56.85,9.79c-17.2,0.62-34.34-1.13-51.13-4.83c-9.84,7.17-20.04,13.95-30.75,19.75
	c-4.51,2.5-9.1,4.88-13.82,6.99c-3.63,1.63-7.35,3.11-11.18,4.18c-2.07,0.59-4.25,0.57-6.32-0.04l-0.25-0.08l-0.23-0.11
	c-2.03-0.9-3.77-2.4-4.18-4.69c-0.7-3.88,2.82-6.82,5.66-8.78c1.8-1.24,3.69-2.35,5.61-3.39c2.49-1.37,5.04-2.64,7.61-3.87
	l0.03-0.02l0.06-0.03c30.64-14.29,58.49-36.23,74.52-66.25c5.8-10.87,10.48-22.4,14.43-34.06c3.13-9.18,5.82-18.51,8.27-27.89
	c2.94-11.29,5.52-22.68,7.88-34.11c3.46-16.8,6.79-33.62,10.22-50.43c8.09-39.64,16.74-79.52,29.44-117.98
	c12.07-36.53,28.03-72.22,51.26-103.12c33.88-45.08,78.28-73.26,132.41-88.46c25.79-7.25,54.51-10.36,79.98-0.26
	c22.19,8.8,35.76,25.12,40.03,48.67c3.24,17.88,0.41,34.85-8.94,50.53l-0.01,0.03l-0.05,0.07c-9.19,15.09-22.15,25.5-39.22,30.29
	c-10.4,2.92-21.59,3.2-31.13-2.46c-9.44-5.39-14.29-14.46-16.19-24.91c-1.64-9.05-0.63-17.98,4.69-25.71
	c5.85-8.52,16.64-14.93,25.81-19.42l0.57-0.49l0.45-0.23c6.91-3.59,21.7-12.02,19.98-21.5c-1.81-9.95-12.88-15.11-21.52-17.88
	c-14.9-4.72-30.2-3.91-45.14,0.29c-33.55,9.42-57.88,33.04-75.79,62.14c-11.9,19.34-20.92,40.67-28.42,62.05
	C705.52,1334.12,698.53,1360.59,692.63,1387.24z"/>
<path class="st1" d="M1071.5,1788.91l0.04,0.01l0.08,0.02c4.38,1.25,8.92,1.78,13.47,1.58l-5.07,29.73
	c-12.31,4.95-25.24,7.21-38.59,6.38c-17.32-1.08-32.83-7.08-46.6-17.64c-31.09-23.81-40.93-61.9-41.84-99.38
	c-1.24-47.54,12.27-93.65,32.78-136.15l1.01-2.09l12.15,19.73c-12.7,31.39-13.01,63.95-4.97,96.62
	c8.71,35.64,26.08,66.71,55.48,89.22C1055.91,1781.91,1063.56,1786.75,1071.5,1788.91z"/>
<path class="st1" d="M1028.39,1481.86c8.46-17.3,14.87-35.57,19.49-54.25l0.06-0.22l0.01-0.02c0.6-2.24,1.21-4.49,1.9-6.72
	c0.44-1.38,0.91-2.98,1.68-4.2l0.12-0.19l0.15-0.19l0.02-0.02c1.24-1.51,2.73-3.12,4.58-3.86c1.76-0.77,3.73-0.87,5.52-0.18
	l0.54,0.2l0.48,0.36c3.26,2.5,4.2,6.74,4.23,10.64c0.17,3.62-0.24,7.53-2.19,10.67c-0.15,0.31-0.29,0.81-0.4,1.15
	c-0.39,1.23-0.72,2.47-1.02,3.72c-5.34,22.48-13.28,44.27-23.3,65.09c16.59,31.08,31.28,63.27,42.92,96.53
	c6.37,18.18,11.82,36.69,16.12,55.47c9.44,41.5,13.35,84.71,7.54,127.01c9.78-6.01,18.67-13.4,26.7-21.6
	c11.97-12.24,22.25-26.16,31.32-40.65c18.38-29.3,32.06-61.38,41.99-94.45c10.11-33.68,16.29-68.48,17.29-103.66
	c0.94-28.69-0.95-58.7-9.41-86.27c-6.09-19.86-16.02-39.5-32.85-52.39c-8.79-6.73-19.08-11.39-30.33-9.25
	c-11.38,2.26-19.58,10.46-25.55,19.98c-7.14,11.4-13.63,23.13-18.26,35.8c-5.51,15.09-8.11,30.78-6.48,46.84
	c1.43,14.4,3.73,28.71,7.62,42.67c5.05,18.13,12.71,35.09,21.82,51.52c6.12,11.14,16.22,25.14,29.43,27.85
	c8.67,1.78,16.69-1.91,22.35-8.45c13.24-15.3,7.48-32.41-5.24-45.82c-1.92-2.03-4.34-3.67-7.06-4.42c-1.69-0.47-3.83-0.65-5.49,0.07
	l-0.48,0.2l-0.43,0.06c-6.01,2.73-13.6,5.36-20.22,4.19c-6.45-1.13-11.14-5.6-14.51-10.97c-4.17-6.68-6.13-14.13-4.58-21.95
	c1.43-7.86,6.05-14.08,12.41-18.71c9.39-6.86,19.96-8.96,31.27-6.19l0.03,0.01l0.04,0.01c4.86,1.25,9.43,3.32,13.56,6.19
	c6.16,4.29,11.61,10.12,15.95,16.22c5.34,7.51,9.41,15.99,11.71,24.92c0.91,3.5,1.61,7.05,2.11,10.63
	c3.85,27.37-4.09,59.11-30.41,72.62c-6.54,3.35-13.58,4.99-20.93,4.73c-14.32-0.5-27.52-8.08-38.12-17.27
	c-12.28-10.65-22.45-24.47-30.26-38.65c-9.04-16.42-16.06-35.38-18.34-54.04c-8.93-41.64-1.69-80.39,20.86-116.34
	c8.29-13.22,18.92-25.72,32.59-33.6c4.18-2.41,8.61-4.36,13.23-5.76c18.66-5.66,35.7-1.18,50.97,10.52
	c16.65,12.76,28.01,30.92,35.9,50.1c9.67,23.51,14.4,48.81,15.82,74.12c2.26,42.01-2.28,83.88-12.71,124.61
	c-10.6,40.98-27.2,79.94-49.7,115.82c-10.18,16.24-21.81,31.93-35.5,45.4c-12.32,12-26.19,22.21-41.11,30.74
	c-2.46,11.92-5.45,23.78-9.48,35.26c-1.66,4.89-3.45,9.72-5.52,14.45c-1.59,3.64-3.35,7.24-5.46,10.6
	c-1.14,1.83-2.77,3.27-4.71,4.21l-0.24,0.11l-0.24,0.07c-2.11,0.69-4.4,0.75-6.25-0.66c-3.14-2.4-2.5-6.95-1.72-10.3
	c0.49-2.13,1.15-4.22,1.87-6.27c0.92-2.69,1.95-5.34,3.03-7.97l0.01-0.03l0.03-0.06c13.07-31.15,18.93-66.08,10.59-99.07
	c-3.02-11.94-7.32-23.62-12.24-34.9c-3.86-8.9-8.14-17.61-12.65-26.2c-5.42-10.34-11.18-20.5-17.13-30.55
	c-8.74-14.76-17.6-29.45-26.38-44.2c-20.69-34.78-41.13-70.12-57.61-107.11c-15.66-35.15-27.86-72.28-31.46-110.75
	c-5.26-56.11,8.65-106.78,38.49-154.36c14.22-22.67,33.39-44.25,59.05-53.86c22.35-8.37,43.39-5.39,62.4,9.17
	c14.44,11.06,23.76,25.53,27.4,43.41l0.01,0.03l0.02,0.09c3.35,17.34,0.76,33.74-8.65,48.75c-5.73,9.14-13.84,16.86-24.71,19.08
	c-10.62,2.35-20.31-1.12-28.76-7.58c-7.31-5.6-12.57-12.89-13.83-22.18c-1.4-10.24,2.27-22.22,6.04-31.7l0.09-0.74l0.18-0.47
	c2.7-7.3,7.98-23.47,0.33-29.33c-8.04-6.15-19.71-2.54-27.97,1.2c-14.21,6.51-25,17.38-33.23,30.51
	c-18.5,29.49-20.62,63.31-14.29,96.88c4.2,22.31,11.89,44.15,20.72,65.02C1002.19,1433.87,1014.83,1458.17,1028.39,1481.86z"/>
<path class="st1" d="M1593.44,1518.08l0.03-0.02l0.08-0.04c4.04-2.1,7.7-4.83,10.86-8.1l16.79,25.07
	c-5.53,12.05-13.36,22.57-23.62,31.13c-13.32,11.11-28.71,17.41-45.98,19.2c-38.97,4.06-72.35-16.83-98.83-43.42
	c-33.64-33.65-55.6-76.41-69.99-121.34l-0.71-2.21l22.41,5.98c12.4,31.51,34.6,55.37,62.94,73.55
	c30.88,19.89,64.88,30.51,101.72,26.67C1577.3,1523.71,1586.19,1521.97,1593.44,1518.08z"/>
<path class="st1" d="M1350.66,1324.8c-5.78-18.37-13.7-36.03-23.22-52.77l-0.11-0.2l-0.01-0.03c-1.11-2.04-2.22-4.09-3.25-6.18
	c-0.63-1.3-1.39-2.79-1.67-4.21l-0.04-0.22l-0.02-0.25v-0.02c-0.14-1.95-0.17-4.14,0.66-5.95c0.75-1.77,2.11-3.19,3.89-3.92
	l0.53-0.22l0.59-0.07c4.09-0.42,7.69,2.01,10.4,4.82c2.62,2.52,5.01,5.63,5.76,9.25c0.1,0.33,0.35,0.79,0.5,1.11
	c0.56,1.16,1.18,2.28,1.82,3.4c11.61,19.99,20.85,41.26,27.92,63.25c33.45,11.17,66.29,24.45,97.65,40.59
	c17.14,8.83,33.85,18.52,49.91,29.2c35.43,23.64,68.04,52.33,92.96,87.03c2.96-11.08,4.33-22.55,4.51-34.01
	c0.26-17.1-1.87-34.27-5.26-51.02c-6.84-33.89-19.01-66.57-34.58-97.4c-15.86-31.4-35.34-60.9-58.85-87.12
	c-19.08-21.48-41.12-41.96-66.25-56.17c-18.1-10.24-38.83-17.67-59.93-15.47c-11.02,1.14-21.7,4.84-28.39,14.12
	c-6.71,9.46-7.01,21.04-4.78,32.05c2.67,13.18,6.03,26.15,11.41,38.52c6.39,14.73,15.31,27.91,27.56,38.45
	c10.96,9.47,22.48,18.28,34.92,25.74c16.15,9.7,33.39,16.75,51.33,22.42c12.12,3.89,29.1,7.11,40.55,0
	c7.52-4.67,10.8-12.85,10.4-21.48c-0.93-20.2-16.9-28.66-35.36-29.67c-2.8-0.15-5.69,0.32-8.17,1.64c-1.56,0.82-3.23,2.16-3.94,3.82
	l-0.21,0.48l-0.27,0.34c-2.48,6.11-6.18,13.24-11.79,16.93c-5.47,3.61-11.95,3.59-18.09,2c-7.63-1.98-14.18-6.05-18.44-12.78
	c-4.37-6.69-5.31-14.38-3.88-22.11c2.09-11.43,8.32-20.21,18.43-25.97l0.03-0.02l0.03-0.02c4.39-2.43,9.13-4.06,14.1-4.82
	c7.42-1.12,15.4-0.63,22.76,0.82c9.05,1.78,17.84,5.15,25.67,10.04c3.07,1.92,6.02,4.01,8.85,6.26
	c21.65,17.22,37.75,45.72,27.94,73.6c-2.44,6.92-6.42,12.95-11.94,17.81c-10.74,9.47-25.55,13.04-39.56,13.65
	c-16.25,0.7-33.15-2.34-48.59-7.28c-17.88-5.71-36.03-14.65-50.53-26.63c-35.16-24.09-56.59-57.19-65-98.78
	c-3.09-15.28-3.98-31.67,0.52-46.77c1.38-4.62,3.25-9.08,5.64-13.27c9.65-16.93,25.1-25.37,44.24-27.37
	c20.88-2.18,41.63,3.21,60.57,11.71c23.21,10.43,44.07,25.55,62.54,42.94c30.58,28.95,56.12,62.46,76.6,99.19
	c20.53,37.03,35.32,76.71,43.7,118.21c3.8,18.78,6.16,38.16,5.5,57.34c-0.68,17.17-3.71,34.11-8.67,50.55
	c6.42,10.34,12.42,21.01,17.41,32.1c2.16,4.68,4.19,9.43,5.94,14.28c1.35,3.73,2.56,7.55,3.33,11.44c0.43,2.11,0.25,4.28-0.52,6.29
	l-0.09,0.24l-0.12,0.21c-1.05,1.95-2.68,3.57-5,3.81c-3.93,0.41-6.6-3.33-8.34-6.3c-1.11-1.89-2.07-3.85-2.96-5.84
	c-1.18-2.59-2.26-5.22-3.29-7.87l-0.02-0.03l-0.03-0.06c-11.97-31.59-31.78-60.97-60.55-79.19c-10.42-6.59-21.58-12.12-32.92-16.93
	c-8.93-3.81-18.04-7.19-27.23-10.33c-11.06-3.78-22.24-7.2-33.47-10.41c-16.51-4.71-33.07-9.29-49.59-13.97
	c-38.98-11.03-78.16-22.65-115.6-38.19c-35.58-14.76-70.01-33.34-99.12-58.79c-42.46-37.12-67.27-83.46-78.38-138.49
	c-5.3-26.22-6.24-55.05,5.76-79.65c10.46-21.43,27.78-33.71,51.62-36.2c18.1-1.88,34.83,2.22,49.79,12.7l0.03,0.02l0.07,0.05
	c14.37,10.29,23.79,23.97,27.3,41.33c2.14,10.57,1.57,21.74-4.79,30.82c-6.09,9-15.51,13.14-26.1,14.25
	c-9.16,0.95-18-0.73-25.32-6.6c-8.07-6.47-13.66-17.69-17.45-27.16l-0.44-0.6l-0.2-0.46c-3.07-7.15-10.38-22.51-19.97-21.52
	c-10.07,1.05-16.05,11.69-19.47,20.08c-5.84,14.48-6.18,29.78-3.11,44.97c6.89,34.11,28.65,60.12,56.36,80.14
	c18.42,13.31,39.04,23.89,59.83,32.97C1298.57,1307.96,1324.49,1316.92,1350.66,1324.8z"/>
<path class="st1" d="M1788.96,1026.62l0.01-0.03l0.04-0.08c1.96-4.11,3.23-8.49,3.77-13.01l28.54,9.88
	c2.87,12.94,2.98,26.05-0.03,39.06c-3.91,16.89-12.38,31.17-25.07,43.01c-28.63,26.72-67.87,30.16-105.05,24.9
	c-47.17-6.58-90.5-27.45-129.12-54.62l-1.9-1.33l21.49-8.73c28.92,17.66,61.05,23.32,94.64,20.75c36.64-2.73,70.18-14.74,97.24-40
	C1779.49,1040.83,1785.52,1034.09,1788.96,1026.62z"/>
<path class="st1" d="M1478.55,1018.7c-15.71-11.17-32.7-20.49-50.4-28.1l-0.21-0.09l-0.02-0.02c-2.12-0.96-4.24-1.93-6.32-2.97
	c-1.29-0.66-2.79-1.39-3.88-2.35l-0.17-0.15l-0.17-0.18l-0.01-0.02c-1.29-1.47-2.64-3.2-3.07-5.14c-0.47-1.86-0.25-3.81,0.73-5.47
	l0.29-0.5l0.44-0.41c3.01-2.8,7.35-3.03,11.21-2.42c3.61,0.43,7.4,1.47,10.18,3.91c0.28,0.2,0.75,0.42,1.07,0.58
	c1.15,0.58,2.32,1.11,3.51,1.61c21.33,8.95,41.56,20.34,60.48,33.63c33.42-11.24,67.64-20.43,102.4-26.44
	c19.01-3.29,38.18-5.62,57.44-6.77c42.55-2.49,85.88,0.75,126.71,13.42c-4.33-10.62-10.17-20.59-16.95-29.84
	c-10.13-13.8-22.2-26.21-35.01-37.52c-25.93-22.91-55.38-41.65-86.42-56.86c-31.62-15.49-64.98-27.28-99.57-34.04
	c-28.19-5.64-58.15-8.7-86.78-4.89c-20.62,2.74-41.65,9.3-57.14,23.76c-8.09,7.55-14.39,16.92-14.11,28.36
	c0.36,11.58,7.12,21,15.55,28.44c10.09,8.91,20.61,17.23,32.37,23.86c14,7.9,29.07,13.04,45.2,14.07c14.46,0.95,28.97,1.04,43.4-0.5
	c18.74-2,36.75-6.76,54.48-13.04c12.02-4.2,27.5-11.85,32.34-24.42c3.18-8.25,0.85-16.75-4.68-23.4
	c-12.94-15.55-30.79-12.69-46.12-2.36c-2.32,1.56-4.34,3.68-5.53,6.23c-0.75,1.59-1.27,3.67-0.84,5.42l0.12,0.51l-0.02,0.43
	c1.72,6.36,3.07,14.28,0.83,20.6c-2.18,6.17-7.36,10.05-13.22,12.49c-7.28,3.02-14.96,3.72-22.43,0.92
	c-7.53-2.7-12.92-8.27-16.45-15.29c-5.23-10.38-5.57-21.13-0.99-31.81l0.01-0.03l0.02-0.03c2.03-4.59,4.83-8.74,8.34-12.34
	c5.24-5.37,11.91-9.77,18.65-13.05c8.3-4.03,17.34-6.64,26.54-7.45c3.61-0.32,7.23-0.43,10.84-0.34
	c27.67,0.7,57.73,13.72,66.75,41.87c2.24,6.99,2.7,14.2,1.24,21.4c-2.85,14.03-12.5,25.79-23.31,34.71
	c-12.54,10.35-27.85,18.1-43.15,23.46c-17.71,6.21-37.59,10.01-56.4,9.19c-42.6,1.96-79.69-11.53-111.51-39.63
	c-11.7-10.33-22.31-22.86-27.85-37.62c-1.69-4.52-2.89-9.19-3.52-13.97c-2.53-19.31,4.69-35.35,18.75-48.48
	c15.33-14.31,35.14-22.52,55.38-27.14c24.81-5.66,50.59-6.17,75.82-3.42c41.88,4.67,82.49,16.02,121.01,32.97
	c38.75,17.17,74.51,39.91,106.26,67.96c14.37,12.69,27.97,26.72,39.03,42.41c9.83,14.1,17.65,29.44,23.62,45.54
	c11.37,4.38,22.59,9.27,33.28,15.12c4.55,2.43,9.04,5,13.37,7.81c3.33,2.16,6.6,4.48,9.57,7.12c1.62,1.42,2.78,3.26,3.39,5.33
	l0.07,0.25l0.03,0.24c0.34,2.19,0.02,4.46-1.68,6.05c-2.89,2.69-7.27,1.32-10.46,0c-2.02-0.84-3.98-1.83-5.89-2.87
	c-2.51-1.35-4.96-2.8-7.38-4.29l-0.03-0.01l-0.06-0.04c-28.63-17.98-62.17-29.49-96.13-26.69c-12.29,1.01-24.53,3.33-36.48,6.33
	c-9.42,2.34-18.74,5.13-27.96,8.16c-11.1,3.65-22.09,7.65-32.99,11.86c-16.02,6.19-31.98,12.51-47.99,18.73
	c-37.75,14.68-76.02,29.01-115.27,39.17c-37.29,9.66-75.98,15.58-114.58,12.81c-56.3-4.03-104.07-26.04-146.18-63.25
	c-20.07-17.73-38.23-40.15-43.52-67c-4.6-23.39,1.79-43.62,19.3-59.96c13.3-12.41,29.12-19.21,47.38-19.86l0.03-0.01l0.09,0
	c17.68-0.45,33.46,4.79,46.74,16.52c8.09,7.14,14.38,16.39,14.79,27.47c0.58,10.84-4.44,19.82-12.21,27.08
	c-6.73,6.28-14.8,10.26-24.18,9.98c-10.34-0.3-21.58-5.88-30.33-11.15l-0.72-0.21l-0.44-0.25c-6.77-3.86-21.87-11.71-28.92-5.13
	c-7.4,6.91-5.75,18.99-3.4,27.74c4.09,15.07,13.06,27.47,24.69,37.74c26.1,23.06,59.17,30.7,93.36,29.97
	c22.73-0.48,45.57-4.46,67.64-9.74C1426.84,1036.64,1452.92,1028.18,1478.55,1018.7z"/>
<path class="st1" d="M1638.09,525.1l-0.01-0.03l-0.02-0.09c-0.95-4.45-2.6-8.7-4.92-12.62l28.68-9.46
	c10.15,8.54,18.21,18.88,23.74,31.05c7.17,15.79,9.13,32.27,6.25,49.38c-6.49,38.58-35.57,65.12-68.31,83.49
	c-41.47,23.38-88.59,33.08-135.8,34.92l-2.32,0.09l11.76-19.96c33.72-3.51,62.68-18.5,87.8-40.91
	c27.44-24.4,46.78-54.28,52.92-90.76C1639.2,542.13,1639.9,533.12,1638.09,525.1z"/>
<path class="st1" d="M1386.68,707.07c-19.27,0.65-38.44,3.56-57.13,8.24l-0.22,0.05h-0.03c-2.27,0.52-4.54,1.04-6.83,1.47
	c-1.42,0.26-3.05,0.59-4.5,0.49l-0.22-0.02l-0.24-0.04l-0.02-0.01c-1.92-0.38-4.04-0.94-5.57-2.23c-1.51-1.19-2.52-2.88-2.74-4.79
	l-0.07-0.57l0.1-0.59c0.69-4.04,3.99-6.87,7.43-8.72c3.13-1.85,6.77-3.32,10.46-3.07c0.35-0.01,0.85-0.12,1.21-0.18
	c1.27-0.23,2.52-0.53,3.77-0.85c22.4-5.83,45.39-9.05,68.5-9.96c19.71-29.2,41.31-57.25,65.26-83.11
	c13.1-14.14,26.92-27.62,41.51-40.22c32.29-27.78,68.68-51.49,108.83-66.19c-9.9-5.82-20.6-10.19-31.62-13.42
	c-16.44-4.82-33.58-7.36-50.64-8.57c-34.54-2.47-69.33,0.5-103.24,7.25c-34.54,6.87-68.21,17.73-99.81,33.35
	c-25.83,12.62-51.48,28.36-71.91,48.74c-14.71,14.68-27.43,32.64-30.94,53.53c-1.84,10.91-1.13,22.17,6.04,31.09
	c7.34,8.98,18.43,12.36,29.65,13.17c13.43,0.96,26.85,1.18,40.23-0.68c15.93-2.21,31.03-7.28,44.47-16.24
	c12.07-8.02,23.65-16.75,34.17-26.72c13.67-12.95,25.08-27.66,35.35-43.4c6.99-10.62,14.64-26.09,10.84-39.01
	c-2.5-8.48-9.52-13.82-17.96-15.75c-19.74-4.51-32.18,8.6-38.08,26.1c-0.9,2.65-1.21,5.55-0.6,8.3c0.38,1.72,1.22,3.69,2.63,4.82
	l0.41,0.33l0.25,0.35c5.23,4.01,11.12,9.48,13.19,15.86c2.03,6.22,0.27,12.45-2.91,17.94c-3.95,6.81-9.62,12.03-17.26,14.33
	c-7.62,2.42-15.29,1.26-22.37-2.17c-10.47-5.07-17.28-13.41-20.14-24.68l-0.01-0.03l-0.01-0.04c-1.17-4.88-1.48-9.87-0.88-14.86
	c0.9-7.44,3.51-14.99,6.87-21.68c4.14-8.23,9.74-15.79,16.55-22.01c2.67-2.44,5.48-4.72,8.41-6.84
	c22.41-16.23,54.21-24.11,78.49-7.22c6.03,4.2,10.78,9.64,14,16.25c6.27,12.87,5.76,28.06,2.6,41.71
	c-3.67,15.82-11.11,31.27-20,44.81c-10.29,15.67-23.77,30.75-39.21,41.51c-32.65,27.4-70.32,39.17-112.7,36.15
	c-15.58-1.12-31.63-4.63-45-12.99c-4.09-2.56-7.89-5.55-11.29-8.97c-13.76-13.81-17.78-30.93-14.59-49.89
	c3.48-20.67,14.22-39.2,27.49-55.15c16.27-19.55,36.43-35.58,58.15-48.71c36.11-21.69,75.28-37.31,116.19-47.2
	c41.23-9.86,83.47-13.49,125.76-10.46c19.14,1.37,38.47,4.26,56.8,10.02c16.39,5.24,31.93,12.69,46.47,21.85
	c11.7-3.41,23.59-6.34,35.63-8.18c5.1-0.83,10.22-1.51,15.37-1.9c3.96-0.3,7.97-0.44,11.93-0.15c2.15,0.15,4.19,0.9,5.93,2.18
	l0.21,0.16l0.17,0.17c1.6,1.53,2.73,3.54,2.34,5.83c-0.65,3.89-4.97,5.46-8.31,6.34c-2.11,0.56-4.27,0.96-6.43,1.29
	c-2.81,0.45-5.64,0.78-8.47,1.07l-0.03,0l-0.07,0.01c-33.68,3.08-67.33,14.29-92.6,37.11c-9.15,8.26-17.46,17.52-25.14,27.15
	c-6.06,7.58-11.76,15.44-17.25,23.44c-6.6,9.63-12.89,19.47-18.99,29.43c-8.96,14.63-17.8,29.33-26.73,43.98
	c-21.06,34.55-42.75,69.15-67.74,101.03c-23.75,30.29-50.88,58.46-83.22,79.67c-47.17,30.94-98.52,42.43-154.6,38.41
	c-26.72-1.91-54.79-8.71-75.33-26.83c-17.89-15.79-25.11-35.74-21.14-59.34c3.02-17.92,11.45-32.92,25.56-44.52l0.02-0.02l0.07-0.05
	c13.77-11.08,29.49-16.49,47.18-15.22c10.77,0.77,21.4,4.3,28.46,12.85c7.06,8.26,8.53,18.44,6.78,28.92
	c-1.53,9.07-5.51,17.13-13.14,22.6c-8.4,6.03-20.72,8.42-30.88,9.54l-0.7,0.26l-0.5,0.07c-7.72,1.04-24.5,3.97-26.1,13.46
	c-1.68,9.97,6.99,18.57,14.17,24.1c12.42,9.49,27.09,13.9,42.57,15.01c34.76,2.49,65.67-11.5,92.39-32.82
	c17.77-14.17,33.48-31.18,47.8-48.76C1356.51,752.68,1372.08,730.14,1386.68,707.07z"/>
<path class="st1" d="M1169.21,208.44l-0.03-0.02l-0.07-0.05c-3.72-2.63-7.82-4.64-12.17-5.96l14.68-26.35
	c13.26-0.58,26.2,1.57,38.52,6.78c15.98,6.76,28.61,17.57,38.09,32.09c21.4,32.77,18.01,71.97,6.39,107.62
	c-14.64,45.25-42.73,84.26-76.21,117.54l-1.64,1.63l-4.89-22.64c22.42-25.39,33.55-56.01,36.83-89.48
	c3.64-36.51-2.41-71.57-22.64-102.55C1181.59,220.21,1175.99,213.11,1169.21,208.44z"/>
<path class="st1" d="M1145.17,179.53c-4.67,7.85-8.81,15.61-12.46,23.19c-10.79,2.41-21.27,6.34-31.19,11.25
	c-15.36,7.57-29.68,17.28-43.07,27.92c-27.08,21.55-50.67,47.27-71.04,75.19c-20.74,28.41-38.15,59.17-50.79,92.03
	c-10.42,26.74-18.61,55.68-19.82,84.49c-0.87,20.74,1.95,42.57,13.54,60.32c6.06,9.24,14.22,17.07,25.54,18.77
	c11.5,1.67,21.95-3.37,30.76-10.36c10.51-8.38,20.53-17.28,29.12-27.7c10.2-12.43,17.87-26.34,21.7-42.04
	c3.43-14.07,6.03-28.32,6.99-42.76c1.27-18.8-0.31-37.31-3.43-55.83c-2.07-12.55-6.92-29.12-18.49-36.05
	c-7.61-4.54-16.39-3.74-23.9,0.56c-17.59,10.05-17.84,28.1-10.29,44.95c1.11,2.57,2.88,4.92,5.19,6.52c1.42,1.02,3.4,1.89,5.19,1.76
	l0.53-0.03l0.43,0.09c6.55-0.59,14.62-0.56,20.47,2.75c5.69,3.22,8.63,8.97,10.02,15.15c1.73,7.7,1.08,15.36-2.97,22.23
	c-3.96,6.93-10.39,11.28-17.93,13.54c-11.13,3.34-21.8,1.82-31.56-4.54l-0.03-0.03c-4.17-2.78-7.79-6.28-10.73-10.33
	c-4.39-6.09-7.61-13.42-9.68-20.62c-2.53-8.84-3.52-18.18-2.75-27.36c0.31-3.62,0.83-7.2,1.55-10.73
	c5.47-27.11,23.53-54.41,52.83-58.4c7.3-0.99,14.5-0.22,21.33,2.47c13.36,5.22,23.28,16.76,30.2,28.94
	c8.04,14.1,13.05,30.51,15.67,46.5c3.09,18.49,3.4,38.68-0.68,57.04c-5.41,42.23-25.13,76.39-58.37,102.82
	c-12.21,9.71-26.4,17.99-41.92,20.87c-4.76,0.9-9.58,1.27-14.41,1.05c-19.48-0.87-34.04-10.73-44.55-26.83
	c-11.47-17.56-16.14-38.46-17.22-59.14c-1.3-25.38,2.66-50.82,9.74-75.19c11.84-40.38,30.08-78.34,53.45-113.3
	c23.65-35.15,52.25-66.38,85.42-92.75c14.99-11.93,31.19-22.88,48.6-31.04C1111.78,187.66,1128.25,182.62,1145.17,179.53z"/>
<path class="st1" d="M1107.63,512.42c-13.7,13.51-25.81,28.57-36.36,44.64l-0.12,0.19c-1.33,1.92-2.66,3.83-4.05,5.72
	c-0.87,1.14-1.82,2.5-2.97,3.4l-0.19,0.15l-0.22,0.12c-1.67,1.02-3.62,2.04-5.63,2.13c-1.92,0.15-3.8-0.4-5.26-1.67l-0.43-0.37
	l-0.34-0.49c-2.23-3.43-1.7-7.73-0.43-11.44c1.05-3.46,2.72-7.02,5.6-9.34c0.25-0.25,0.56-0.68,0.77-0.96
	c0.77-1.02,1.48-2.07,2.19-3.15c12.49-19.38,27.17-37.25,43.5-53.55C1104.85,495.98,1106.3,505.53,1107.63,512.42z"/>
<path class="st1" d="M1194.75,139.99c-1.17,1.82-2.5,3.59-3.86,5.29c-1.76,2.23-3.62,4.39-5.5,6.52l-0.03,0.03l-0.03,0.03
	c-22.69,25.07-39.85,56.05-42.94,89.93c-1.14,12.27-0.96,24.7-0.09,36.97c0.68,9.68,1.82,19.32,3.22,28.94
	c1.7,11.53,3.74,23.03,6,34.47c3.34,16.82,6.8,33.64,10.17,50.45c7.95,39.66,15.49,79.76,18.7,120.14
	c3.09,38.33,2.23,77.41-7.17,114.88c-13.7,54.69-43.68,97.85-87.64,132.84c-20.96,16.66-46.22,30.67-73.64,31.22
	c-23.87,0.46-42.69-9.31-55.8-29.37c-9.92-15.21-13.91-31.97-11.38-50.02v-0.12c2.63-17.47,10.51-32.09,24.39-43.1
	c8.44-6.74,18.64-11.31,29.65-9.8c10.79,1.3,18.77,7.79,24.61,16.69c5.01,7.7,7.54,16.32,5.66,25.51
	c-2.1,10.11-9.55,20.19-16.26,27.89l-0.31,0.68l-0.34,0.37c-4.98,6-15.33,19.51-10.05,27.58c5.53,8.44,17.71,8.93,26.77,8.13
	c15.55-1.42,29.34-8.1,41.49-17.75c27.27-21.7,40.5-52.9,45.69-86.66c3.46-22.41,3.49-45.57,2.1-68.2
	c-1.58-25.91-5.13-51.72-9.71-77.29c-0.03-0.09-0.06-0.22-0.06-0.34c-0.22-1.21-0.43-2.38-0.65-3.59c-0.03,0.03-0.06,0.06-0.09,0.09
	c-1.33-6.89-2.78-16.45-3.93-24.61c0.03-0.03,0.09-0.09,0.12-0.12c-0.65-4.17-1.24-8.35-1.82-12.55c-0.06-0.62-0.15-1.24-0.25-1.89
	c-0.19-1.39-0.28-2.16-0.28-2.16c-3.86-29.4-6.09-59.05-6-88.7c0.03-19.26,1.05-38.52,3.25-57.66c3.25-28.1,9.06-56.14,18.39-82.91
	c4.64-13.51,10.2-26.68,16.76-39.39c-0.4,0.09-0.77,0.19-1.17,0.28c3.65-7.57,7.79-15.33,12.46-23.19c0.77-1.33,1.58-2.63,2.38-3.9
	c0.8-1.3,1.61-2.57,2.38-3.83c0-0.03,0.03-0.03,0.03-0.06c1.67-2.57,3.34-5.1,5.04-7.61c0.65-0.96,1.27-1.89,1.95-2.81
	c0.56-0.83,1.11-1.64,1.7-2.44c2.32-3.22,4.7-6.37,7.17-9.46c3.18-4.08,6.49-8.04,10.02-11.81c2.72-2.91,5.56-5.72,8.69-8.19
	c1.67-1.33,3.71-2.16,5.84-2.41l0.25-0.03l0.25,0.03c2.23,0.03,4.42,0.74,5.69,2.69C1198.71,133,1196.61,137.08,1194.75,139.99z"/>
</svg>
