<svg width="42" height="39" viewBox="0 0 42 39" fill="none" xmlns="http://www.w3.org/2000/svg">
<g filter="url(#filter0_d_287_119)">
<path d="M21 0L24.8167 11.7467L37.168 11.7467L27.1756 19.0066L30.9923 30.7533L21 23.4934L11.0077 30.7533L14.8244 19.0066L4.83204 11.7467L17.1833 11.7467L21 0Z" fill="#E4A156"/>
<path d="M21 1.61804L24.3412 11.9012L24.4535 12.2467H24.8167L35.6291 12.2467L26.8817 18.6021L26.5878 18.8156L26.7001 19.1611L30.0413 29.4443L21.2939 23.0889L21 22.8754L20.7061 23.0889L11.9587 29.4443L15.2999 19.1611L15.4122 18.8156L15.1183 18.6021L6.37088 12.2467L17.1833 12.2467H17.5465L17.6588 11.9012L21 1.61804Z" stroke="#D38B3A" stroke-opacity="0.54"/>
</g>
<defs>
<filter id="filter0_d_287_119" x="0.832031" y="0" width="40.3359" height="38.7532" filterUnits="userSpaceOnUse" color-interpolation-filters="sRGB">
<feFlood flood-opacity="0" result="BackgroundImageFix"/>
<feColorMatrix in="SourceAlpha" type="matrix" values="0 0 0 0 0 0 0 0 0 0 0 0 0 0 0 0 0 0 127 0" result="hardAlpha"/>
<feOffset dy="4"/>
<feGaussianBlur stdDeviation="2"/>
<feComposite in2="hardAlpha" operator="out"/>
<feColorMatrix type="matrix" values="0 0 0 0 0 0 0 0 0 0 0 0 0 0 0 0 0 0 0.25 0"/>
<feBlend mode="normal" in2="BackgroundImageFix" result="effect1_dropShadow_287_119"/>
<feBlend mode="normal" in="SourceGraphic" in2="effect1_dropShadow_287_119" result="shape"/>
</filter>
</defs>
</svg>
