<svg width="25" height="25" viewBox="0 0 25 25" fill="none" xmlns="http://www.w3.org/2000/svg">
<path d="M12.4999 2.08325C6.74992 2.08325 2.08325 6.74992 2.08325 12.4999C2.08325 18.2499 6.74992 22.9166 12.4999 22.9166C18.2499 22.9166 22.9166 18.2499 22.9166 12.4999C22.9166 6.74992 18.2499 2.08325 12.4999 2.08325ZM7.65617 19.2708C9.02075 18.2916 10.6874 17.7083 12.4999 17.7083C14.3124 17.7083 15.9791 18.2916 17.3437 19.2708C15.9791 20.2499 14.3124 20.8333 12.4999 20.8333C10.6874 20.8333 9.02075 20.2499 7.65617 19.2708ZM18.8958 17.8333C17.0712 16.4017 14.8191 15.6237 12.4999 15.6237C10.1808 15.6237 7.92867 16.4017 6.10409 17.8333C4.85088 16.3388 4.16481 14.4503 4.16659 12.4999C4.16659 7.89575 7.89575 4.16659 12.4999 4.16659C17.1041 4.16659 20.8333 7.89575 20.8333 12.4999C20.8333 14.5312 20.1041 16.3853 18.8958 17.8333Z" fill="#460404"/>
<path d="M12.5001 6.25C10.4897 6.25 8.85425 7.88542 8.85425 9.89583C8.85425 11.9062 10.4897 13.5417 12.5001 13.5417C14.5105 13.5417 16.1459 11.9062 16.1459 9.89583C16.1459 7.88542 14.5105 6.25 12.5001 6.25ZM12.5001 11.4583C11.6355 11.4583 10.9376 10.7604 10.9376 9.89583C10.9376 9.03125 11.6355 8.33333 12.5001 8.33333C13.3647 8.33333 14.0626 9.03125 14.0626 9.89583C14.0626 10.7604 13.3647 11.4583 12.5001 11.4583Z" fill="#460404"/>
</svg>
