<svg width="23" height="23" viewBox="0 0 23 23" fill="none" xmlns="http://www.w3.org/2000/svg">
<path d="M11.5 12.4585C13.0878 12.4585 14.375 11.1713 14.375 9.5835C14.375 7.99568 13.0878 6.7085 11.5 6.7085C9.91218 6.7085 8.625 7.99568 8.625 9.5835C8.625 11.1713 9.91218 12.4585 11.5 12.4585Z" stroke="#6F6F6F" stroke-width="2.08333" stroke-linecap="round" stroke-linejoin="round"/>
<path d="M11.5 1.91675C9.46671 1.91675 7.51667 2.72448 6.07889 4.16226C4.64111 5.60004 3.83337 7.55009 3.83337 9.58341C3.83337 11.3966 4.21862 12.583 5.27087 13.8959L11.5 21.0834L17.7292 13.8959C18.7815 12.583 19.1667 11.3966 19.1667 9.58341C19.1667 7.55009 18.359 5.60004 16.9212 4.16226C15.4834 2.72448 13.5334 1.91675 11.5 1.91675V1.91675Z" stroke="#6F6F6F" stroke-width="2.08333" stroke-linecap="round" stroke-linejoin="round"/>
</svg>
