<svg width="23" height="23" viewBox="0 0 23 23" fill="none" xmlns="http://www.w3.org/2000/svg">
<g clip-path="url(#clip0_767_10)">
<path fill-rule="evenodd" clip-rule="evenodd" d="M8.80037 0.563402C9.18382 0.341005 9.61923 0.223877 10.0625 0.223877C10.5058 0.223877 10.9412 0.341005 11.3246 0.563402L18.8715 4.94059C19.6478 5.39053 20.125 6.21996 20.125 7.11697V10.4218C20.125 10.7077 20.0114 10.9819 19.8092 11.1841C19.607 11.3863 19.3328 11.4999 19.0469 11.4999C18.7609 11.4999 18.4867 11.3863 18.2845 11.1841C18.0823 10.9819 17.9688 10.7077 17.9688 10.4218V8.16059L11.1406 12.1209V21.2979C11.1407 21.5505 11.0741 21.7987 10.9477 22.0174C10.8213 22.2362 10.6394 22.4177 10.4205 22.5438C10.2016 22.6699 9.95331 22.736 9.70068 22.7356C9.44805 22.7352 9.19999 22.6682 8.9815 22.5413L1.2535 18.0592C0.872205 17.8381 0.555711 17.5206 0.335717 17.1387C0.115722 16.7567 -4.82325e-05 16.3236 1.50743e-08 15.8828L1.50743e-08 7.11697C1.50743e-08 6.21996 0.47725 5.39196 1.2535 4.94059L8.80037 0.563402ZM10.2422 2.42928L16.8978 6.28896L10.0625 10.2536L3.22719 6.28896L9.88281 2.42928C9.93744 2.39774 9.99942 2.38113 10.0625 2.38113C10.1256 2.38113 10.1876 2.39774 10.2422 2.42928ZM2.15625 15.8828V8.16059L8.98438 12.1209V20.0502L2.33594 16.1933C2.28141 16.1619 2.23611 16.1166 2.20458 16.0621C2.17304 16.0076 2.15638 15.9458 2.15625 15.8828ZM17.7215 21.1786C17.5244 21.3858 17.4177 21.6628 17.4248 21.9487C17.432 22.2346 17.5524 22.506 17.7596 22.7031C17.9668 22.9002 18.2438 23.0069 18.5297 22.9997C18.8156 22.9926 19.087 22.8722 19.2841 22.665L22.7024 19.0712C22.8932 18.8708 22.9995 18.6047 22.9995 18.328C22.9995 18.0514 22.8932 17.7853 22.7024 17.5848L19.2841 13.9911C19.087 13.7839 18.8156 13.6635 18.5297 13.6563C18.2438 13.6492 17.9668 13.7559 17.7596 13.953C17.5524 14.1501 17.432 14.4214 17.4248 14.7073C17.4177 14.9932 17.5244 15.2703 17.7215 15.4775L19.4077 17.2499H14.7344C14.4484 17.2499 14.1742 17.3635 13.972 17.5657C13.7698 17.7679 13.6562 18.0421 13.6562 18.328C13.6562 18.614 13.7698 18.8882 13.972 19.0904C14.1742 19.2926 14.4484 19.4062 14.7344 19.4062H19.4077L17.7215 21.1786Z" fill="#6F6F6F"/>
</g>
<defs>
<clipPath id="clip0_767_10">
<rect width="23" height="23" fill="white"/>
</clipPath>
</defs>
</svg>
